<svg version="1.2" xmlns="http://www.w3.org/2000/svg" viewBox="-159 0 370 328" width="370" height="328">
	<title>arrows</title>
	<style>
		.s0 { opacity: .1;fill: #ffffff } 
	</style>
	<g id="Layer 1">
		<path class="s0" d="m-129.7 211.8c14.4 47.6 50.4 88 100.8 106.3 76.3 27.7 159.6-4.8 198.1-73.2l40.7 14.7-44.8-95.7-95.7 44.8 47.1 17.1c-27.3 39.9-79.1 57.9-126.7 40.7-33.5-12.2-57.4-39.1-67-70.7-3.2-10.8-4.8-22.2-4.6-33.7l-29.5 13.8c1.5 16.7 6.1 32.7 13.4 47.2 16.5 37.8 48.9 67.6 89.6 80.1-50.7-10.6-90.6-47.8-106.1-95.3q-0.5-1.7-1-3.3c-2.9-9.8-4.8-20.1-5.5-30.5l-14.4-30.8c-3.1 23.4-1 46.7 5.6 68.5zm-27.4-145.4l44.8 95.7 95.7-44.8-44.9-16.3c27.6-38.6 78.5-55.9 125.4-38.9 43.9 15.9 71.3 57.2 71.7 101.4l27.5-12.9c-2-20.1-8.5-39.5-19-56.5-11.3-23.6-29-44.2-51.9-58.9 45.9 21.8 75.5 65.9 80.4 114.3l16.5 35.3c9.4-74.2-33.3-147.6-106.6-174.1-75.5-27.4-157.8 4.2-196.9 71.2z"/>
	</g>
</svg>