<svg width="101" height="34" viewBox="0 0 101 34" fill="none" xmlns="http://www.w3.org/2000/svg">
<rect width="101" height="34" fill="#F5F5F5"/>
<g id="Log in" clip-path="url(#clip0_0_1)">
<rect width="375" height="812" transform="translate(-137 -340)" fill="url(#paint0_linear_0_1)"/>
<path id="Vector" d="M-260.71 -101.247C-246.273 -53.6153 -210.323 -13.1642 -159.874 5.12012C-83.6059 32.7623 -0.336252 0.26551 38.1858 -68.1292L78.8557 -53.388L34.08 -149.074L-61.6033 -104.297L-14.4899 -87.2207C-41.8166 -47.3125 -93.5887 -29.2798 -141.168 -46.5243C-174.672 -58.6675 -198.565 -85.5729 -208.17 -117.242C-211.447 -128.049 -213.048 -139.41 -212.811 -150.927L-242.265 -137.143C-240.781 -120.385 -236.152 -104.426 -228.93 -89.9162C-212.408 -52.1343 -180.031 -22.2928 -139.328 -9.77809C-189.987 -20.4018 -229.92 -57.6273 -245.371 -105.126C-245.729 -106.226 -246.072 -107.33 -246.404 -108.44C-249.327 -118.239 -251.21 -128.455 -251.945 -138.94L-266.337 -169.697C-269.409 -146.335 -267.315 -123.038 -260.71 -101.247ZM-288.066 -246.602L-243.293 -150.917L-147.609 -195.694L-192.525 -211.974C-164.89 -250.622 -113.967 -267.858 -67.106 -250.874C-23.1773 -234.953 4.21725 -193.653 4.55488 -149.514L32.1405 -162.424C30.1445 -182.538 23.5872 -201.86 13.12 -218.906C1.7954 -242.531 -15.9349 -263.128 -38.8168 -277.816C7.06917 -256.006 36.6793 -211.892 41.5784 -163.516L58.1002 -128.208C67.5235 -202.4 24.8401 -275.751 -48.4531 -302.316C-123.958 -329.682 -206.328 -298.112 -245.35 -231.12L-288.066 -246.602Z" fill="white" fill-opacity="0.1"/>
<g id="Frame 71014">
<circle id="Ellipse 36" cx="50.5" cy="307.5" r="407.5" fill="white"/>
</g>
<g id="OMS_Blue">
<path id="Vector_2" d="M41.3347 3.05176e-05H43.8612C45.6018 3.05176e-05 47.1547 1.09355 47.7413 2.73229L55.0337 23.1036L62.5333 2.53995C63.0896 1.01482 64.5398 3.05176e-05 66.1632 3.05176e-05H69.1634L57.8983 28.5953C57.437 29.7665 56.3063 30.5364 55.0475 30.5364C53.775 30.5364 52.6349 29.7499 52.1831 28.5603L41.3347 3.05176e-05ZM38.351 2.98371C38.351 1.33587 39.6869 3.05176e-05 41.3347 3.05176e-05H43.8612L44.863 9.28889V24.0549V33.8851H38.351V2.98371ZM66.1632 3.05176e-05H69.1634C70.5616 3.05176e-05 71.6951 1.13352 71.6951 2.53176V33.8851H65.1613V24.0549V10.159L66.1632 3.05176e-05ZM93.9318 24.8023C93.9318 24.2134 93.8447 23.6849 93.6704 23.2168C93.5107 22.7335 93.2059 22.2956 92.7557 21.9031C92.3057 21.4953 91.6741 21.0952 90.8609 20.7025C90.0478 20.31 88.9951 19.9022 87.703 19.4795C86.2655 18.9963 84.9007 18.4526 83.6084 17.8486C82.3307 17.2446 81.1981 16.5424 80.2108 15.7421C79.238 14.9267 78.4685 13.983 77.9022 12.9108C77.3505 11.8387 77.0746 10.5929 77.0746 9.17344C77.0746 7.7993 77.365 6.55355 77.9458 5.43617C78.5266 4.3036 79.3397 3.33722 80.3851 2.53691C81.4305 1.72146 82.6646 1.0948 84.0876 0.656888C85.5251 0.218983 87.1004 3.05176e-05 88.8137 3.05176e-05C91.1513 3.05176e-05 93.1914 0.437936 94.9336 1.31376C96.6761 2.18958 98.0263 3.3901 98.9847 4.91523C99.9575 6.44036 100.444 8.18444 100.444 10.1475H93.9535C93.9535 9.18097 93.7576 8.33543 93.3656 7.61062C92.9881 6.87073 92.4072 6.28937 91.6232 5.86654C90.8537 5.44371 89.8809 5.2323 88.7048 5.2323C87.5723 5.2323 86.6284 5.41344 85.8734 5.77585C85.1185 6.12318 84.5522 6.59889 84.1747 7.20286C83.7972 7.79176 83.6084 8.45616 83.6084 9.19617C83.6084 9.7548 83.7391 10.2607 84.0005 10.7138C84.2764 11.1667 84.6828 11.5896 85.2201 11.9821C85.7573 12.3747 86.4179 12.7447 87.2021 13.092C87.9861 13.4393 88.8936 13.7791 89.9245 14.1112C91.6522 14.6549 93.1695 15.2664 94.4763 15.946C95.7976 16.6255 96.9011 17.3881 97.7867 18.2336C98.6724 19.0793 99.3404 20.0381 99.7904 21.1103C100.241 22.1824 100.466 23.398 100.466 24.757C100.466 26.1915 100.197 27.4751 99.6597 28.6075C99.1226 29.7401 98.3457 30.6989 97.3294 31.4842C96.313 32.2694 95.1007 32.8659 93.6923 33.2736C92.2838 33.6812 90.7085 33.8851 88.9662 33.8851C87.398 33.8851 85.8517 33.6737 84.3271 33.251C82.8025 32.813 81.416 32.1561 80.1673 31.2803C78.9331 30.4045 77.9458 29.2871 77.2053 27.9281C76.4649 26.569 76.0945 24.9608 76.0945 23.1036H82.6501C82.6501 24.1304 82.8025 24.9987 83.1075 25.7083C83.4124 26.418 83.8407 26.9918 84.3925 27.4297C84.9587 27.8676 85.6266 28.1848 86.3962 28.381C87.1802 28.5774 88.0369 28.6755 88.9662 28.6755C90.0987 28.6755 91.0279 28.5094 91.7539 28.1773C92.4944 27.845 93.0388 27.3845 93.3873 26.7955C93.7504 26.2066 93.9318 25.5422 93.9318 24.8023Z" fill="url(#paint1_linear_0_1)"/>
<path id="Vector_3" d="M16.2177 0.000217609C11.26 0.0261928 6.37672 2.40048 3.19776 6.86942C-1.60817 13.6255 -0.871411 22.8538 4.56391 28.6996L2.00107 32.3023L12.4085 30.6837L10.852 19.86L7.88319 24.0335C4.84946 20.1409 4.59874 14.4675 7.59688 10.2529C9.70811 7.28493 12.9557 5.7075 16.252 5.68962C17.3769 5.68354 18.507 5.86021 19.5999 6.22408L19.1207 2.89229C17.4787 2.54444 15.8235 2.53252 14.233 2.8209C10.1565 3.34496 6.38759 5.67805 4.03638 9.34974C6.48994 4.63355 11.1785 1.7685 16.1522 1.63781C16.2674 1.63481 16.3826 1.6333 16.4979 1.63316C17.5165 1.63245 18.5454 1.74739 19.5673 1.98424L22.9126 1.46402C20.7695 0.468682 18.4858 -0.0117359 16.2177 0.000217609ZM30.8723 1.57884L20.465 3.19715L22.0214 14.0209L24.8518 10.0422C27.7565 13.9281 27.9553 19.4936 25.0024 23.6447C22.2344 27.5361 17.513 29.0358 13.2894 27.7651L13.7382 30.8856C15.7152 31.2817 17.7462 31.2016 19.671 30.666C22.2483 30.2396 24.7185 29.0877 26.7708 27.2497C23.385 31.1614 18.332 32.798 13.5743 31.855L9.73399 32.4522C16.5495 35.5801 24.7651 33.5093 29.3837 27.0168C34.1415 20.3284 33.4678 11.2168 28.1805 5.3628L30.8723 1.57884Z" fill="url(#paint2_linear_0_1)"/>
</g>
<path id="Vector_4" d="M334.801 0.666501C362.042 -19.3372 379.824 -51.495 380.137 -87.9303C380.61 -143.013 340.991 -188.994 288.493 -198.213L288.746 -227.585L237.587 -177.299L287.874 -126.143L288.166 -160.169C319.894 -151.685 343.136 -122.606 342.841 -88.2435C342.633 -64.046 330.801 -42.6682 312.692 -29.3647C306.512 -24.825 299.598 -21.2331 292.17 -18.7833L307.649 -3.03643C318.045 -7.77172 327.219 -14.341 334.879 -22.2433C355.341 -41.3572 367.136 -68.831 365.956 -97.722C370.596 -62.8823 355.779 -28.9028 328.853 -8.27943C328.23 -7.80204 327.6 -7.33258 326.965 -6.86948C321.35 -2.78409 315.233 0.728995 308.685 3.56819L292.241 19.7317C307.895 16.4218 322.34 9.81827 334.801 0.666501ZM247.903 51.018L299.061 0.733806L248.775 -50.4235L248.495 -17.9841C217.505 -26.9499 194.965 -55.6653 195.256 -89.5094C195.528 -121.235 215.786 -148.107 243.975 -158.293L229.476 -173.042C217.048 -167.22 206.156 -158.657 197.605 -148.103C185.034 -135.515 175.85 -119.509 171.613 -101.539C175.214 -135.848 196.775 -164.774 226.645 -178.839L245.523 -197.394C195.885 -186.669 158.557 -142.768 158.101 -89.8338C157.633 -35.3027 196.455 10.312 248.168 20.1671L247.903 51.018Z" fill="white" fill-opacity="0.1"/>
</g>
<defs>
<linearGradient id="paint0_linear_0_1" x1="187.5" y1="0" x2="187.5" y2="812" gradientUnits="userSpaceOnUse">
<stop stop-color="#2575FC"/>
<stop offset="0.99" stop-color="#6A11CB"/>
</linearGradient>
<linearGradient id="paint1_linear_0_1" x1="69.4083" y1="3.05176e-05" x2="69.4083" y2="33.8851" gradientUnits="userSpaceOnUse">
<stop stop-color="#2575FC"/>
<stop offset="1" stop-color="#1511CB"/>
</linearGradient>
<linearGradient id="paint2_linear_0_1" x1="16.2909" y1="0" x2="16.2909" y2="33.8856" gradientUnits="userSpaceOnUse">
<stop stop-color="#2575FC"/>
<stop offset="1" stop-color="#1511CB"/>
</linearGradient>
<clipPath id="clip0_0_1">
<rect width="375" height="812" fill="white" transform="translate(-137 -340)"/>
</clipPath>
</defs>
</svg>
